<svg aria-hidden="true" viewBox="0 0 150 53.21" focusable="false" aria-hidden="true"><g fill="#fff" opacity=".8"><path d="M14.4 14.43a33 33 0 0 1 8 1.92 32.09 32.09 0 0 1 1.17-6.87 48.09 48.09 0 0 0-9.42-4 49.71 49.71 0 0 0 .25 8.95z" opacity=".5"/><path d="M16.33 22.47a33.51 33.51 0 0 1-1.93-8 49.77 49.77 0 0 0-8.92-.19 48.58 48.58 0 0 0 4 9.41 32.25 32.25 0 0 1 6.85-1.22z" opacity=".8"/><path d="M9.46 23.65A48 48 0 0 0 0 27.51a49.42 49.42 0 0 0 6.47 6.16 32.6 32.6 0 0 1 7-4.32 32.15 32.15 0 0 1-4.01-5.7zm15.3 3.87A17.37 17.37 0 0 1 23 23a22.79 22.79 0 0 0-6.68-.55 23.53 23.53 0 0 0 2.72 5.15 17.79 17.79 0 0 1 5.72-.08z" opacity=".5"/><path d="M13.51 38a33.3 33.3 0 0 1-7-4.32A49.5 49.5 0 0 0 0 39.84a47.08 47.08 0 0 0 9.47 3.84A32.56 32.56 0 0 1 13.51 38zm5.54-10.38a23 23 0 0 0-5.55 1.73 23.12 23.12 0 0 0 5.11 4.32 16.89 16.89 0 0 1 4.42-2 17.86 17.86 0 0 1-3.98-4.05z" opacity=".8"/><path d="M9.48 43.68a47.83 47.83 0 0 0-4 9.42 49.65 49.65 0 0 0 8.92-.21 33.05 33.05 0 0 1 1.92-8 32.09 32.09 0 0 1-6.84-1.21zm9.13-10.01a22.55 22.55 0 0 0-5.1 4.33 24 24 0 0 0 5.55 1.71 17.88 17.88 0 0 1 4-4.1 17.09 17.09 0 0 1-4.45-1.94z" opacity=".5"/><path d="M19.06 39.7a23.51 23.51 0 0 0-2.71 5.15 23.05 23.05 0 0 0 6.65-.56 16.89 16.89 0 0 1 1.75-4.5 17.76 17.76 0 0 1-5.69-.09zm25.77-23.37a33.51 33.51 0 0 1 8-1.93 49.77 49.77 0 0 0 .19-8.92 48.32 48.32 0 0 0-9.41 4 32.89 32.89 0 0 1 1.22 6.85z" opacity=".8"/><path d="M43.65 9.46A48 48 0 0 0 39.79 0a48.77 48.77 0 0 0-6.16 6.47 33 33 0 0 1 4.32 7 32.15 32.15 0 0 1 5.7-4.01zm-3.88 15.3A17.44 17.44 0 0 1 44.28 23a22.79 22.79 0 0 0 .55-6.68 23.53 23.53 0 0 0-5.15 2.72 17.77 17.77 0 0 1 .09 5.72z" opacity=".5"/><path d="M29.31 13.51a33.3 33.3 0 0 1 4.32-7A49.5 49.5 0 0 0 27.46 0a47.08 47.08 0 0 0-3.84 9.47 32.56 32.56 0 0 1 5.69 4.04zM23 23a17 17 0 0 1 4.5 1.75 17.76 17.76 0 0 1 .09-5.71 23.51 23.51 0 0 0-5.15-2.71A23.05 23.05 0 0 0 23 23z" opacity=".8"/><path d="M33.63 18.61a22.82 22.82 0 0 0-4.32-5.1 24 24 0 0 0-1.71 5.55 17.83 17.83 0 0 1 4.09 4 17.14 17.14 0 0 1 1.94-4.45z" opacity=".5"/><path d="M39.68 19.05A23.46 23.46 0 0 0 38 13.5a23.12 23.12 0 0 0-4.32 5.11 17.23 17.23 0 0 1 2 4.42 17.66 17.66 0 0 1 4-3.98z" opacity=".8"/></g><path fill="#fff" d="M29.51 29.38h2.08l2.05 5.37 2.06-5.37h2.06v7.67h-1.3v-6.37l-2.33 6.37h-1l-2.33-6.37v6.37h-1.3zm14.03 4.39l-2.88-4.39h1.71l1.89 3.06 1.9-3.06h1.63l-2.88 4.39v3.28h-1.37zm15.13 3.28h-.78v-3.3L55 29.38h1L58.28 33l2.29-3.62h1l-2.87 4.37zm13.4-3.84a4.07 4.07 0 0 1-.31 1.62 3.8 3.8 0 0 1-.84 1.27 3.76 3.76 0 0 1-1.26.84 4.36 4.36 0 0 1-3.18 0 3.87 3.87 0 0 1-1.26-.84 3.8 3.8 0 0 1-.84-1.27 4.5 4.5 0 0 1 0-3.23 3.8 3.8 0 0 1 .84-1.27 3.87 3.87 0 0 1 1.26-.84 4.36 4.36 0 0 1 3.18 0 3.76 3.76 0 0 1 1.26.84 3.8 3.8 0 0 1 .84 1.27 4.05 4.05 0 0 1 .31 1.61zm-.85 0A3.83 3.83 0 0 0 71 32a3.27 3.27 0 0 0-.63-1.05 2.9 2.9 0 0 0-1-.73 3.36 3.36 0 0 0-2.64 0 2.9 2.9 0 0 0-1 .73 3.07 3.07 0 0 0-.59 1.05 3.75 3.75 0 0 0 0 2.53 3.07 3.07 0 0 0 .62 1.05 2.9 2.9 0 0 0 1 .73 3.36 3.36 0 0 0 2.64 0 2.9 2.9 0 0 0 1-.73 3.27 3.27 0 0 0 .6-1.1 3.8 3.8 0 0 0 .22-1.27zm10.24-2.42a3 3 0 0 0-.94-.65 3.06 3.06 0 0 0-1.25-.24 3.11 3.11 0 0 0-1.32.27 2.9 2.9 0 0 0-1 .73 3.1 3.1 0 0 0-.62 1.1 3.92 3.92 0 0 0 0 2.53 3.1 3.1 0 0 0 .67 1 2.9 2.9 0 0 0 1 .73 3.11 3.11 0 0 0 1.32.27 4.24 4.24 0 0 0 1.14-.15 4.55 4.55 0 0 0 1-.39v-2.57h-1.9v-.71h2.61v3.75a5.24 5.24 0 0 1-1.42.58 5.65 5.65 0 0 1-1.48.2 4.17 4.17 0 0 1-1.59-.3 3.8 3.8 0 0 1-1.27-.84 3.94 3.94 0 0 1-.83-1.27 4.36 4.36 0 0 1 0-3.23 3.94 3.94 0 0 1 .83-1.27 3.8 3.8 0 0 1 1.27-.84 4.17 4.17 0 0 1 1.59-.3 4.4 4.4 0 0 1 1.58.25 3.32 3.32 0 0 1 1.19.78zm4.79 6.26h-.91l3.34-7.67h.76l3.33 7.67h-.91L91 35h-3.9zm1.14-2.73h3.32l-1.65-4zm17.39-3.67a1.67 1.67 0 0 0-1.48-.75 2.41 2.41 0 0 0-.6.08 1.79 1.79 0 0 0-.52.25 1.31 1.31 0 0 0-.38.43 1.39 1.39 0 0 0-.14.63 1.09 1.09 0 0 0 .29.8 2.38 2.38 0 0 0 .73.48 8.73 8.73 0 0 0 .95.33 3.58 3.58 0 0 1 .94.39 2.14 2.14 0 0 1 .73.64 1.85 1.85 0 0 1 .29 1.09 2 2 0 0 1-.22.94 2.2 2.2 0 0 1-.58.7 2.8 2.8 0 0 1-.82.43 2.83 2.83 0 0 1-.9.15 3.55 3.55 0 0 1-1.34-.26 2.64 2.64 0 0 1-1.08-.87l.72-.51a1.78 1.78 0 0 0 .69.67 2 2 0 0 0 1 .26 2 2 0 0 0 .58-.09 2.13 2.13 0 0 0 .52-.27 1.49 1.49 0 0 0 .39-.44 1.32 1.32 0 0 0 0-1.26 1.45 1.45 0 0 0-.44-.45 3.05 3.05 0 0 0-.63-.3l-.73-.23a5.66 5.66 0 0 1-.72-.28 2.21 2.21 0 0 1-.63-.38 1.74 1.74 0 0 1-.45-.58 2.12 2.12 0 0 1-.16-.89 2 2 0 0 1 .77-1.64 2.32 2.32 0 0 1 .8-.4 3.08 3.08 0 0 1 .91-.13 3.44 3.44 0 0 1 1.18.2 2.54 2.54 0 0 1 1 .73zm7.02 6.4h-.8V30.1h-2.57v-.72h5.91v.72h-2.54zm11.4-2.86a5.19 5.19 0 0 1-.11 1 2.74 2.74 0 0 1-.43 1 2.45 2.45 0 0 1-.86.76 3.55 3.55 0 0 1-2.8.05 2.45 2.45 0 0 1-.86-.76 2.74 2.74 0 0 1-.43-1 5.19 5.19 0 0 1-.11-1v-4.86h.78v4.72a3.7 3.7 0 0 0 .11.95 2.3 2.3 0 0 0 .29.67 1.47 1.47 0 0 0 .4.42 1.77 1.77 0 0 0 .44.25 1.82 1.82 0 0 0 .43.11h.71a1.82 1.82 0 0 0 .43-.11 1.77 1.77 0 0 0 .44-.25 1.35 1.35 0 0 0 .4-.42 2.3 2.3 0 0 0 .29-.67 3.7 3.7 0 0 0 .11-.95v-4.72h.78zm4.01-4.81h2.54a4.53 4.53 0 0 1 1.44.24 4 4 0 0 1 1.3.72 3.64 3.64 0 0 1 1.29 2.87 3.65 3.65 0 0 1-.36 1.68 3.72 3.72 0 0 1-.93 1.2 4 4 0 0 1-1.3.72 4.53 4.53 0 0 1-1.44.24h-2.54zm.78 7h1.51a3.9 3.9 0 0 0 1.52-.26 3.17 3.17 0 0 0 1.08-.71 2.88 2.88 0 0 0 .63-1 3.44 3.44 0 0 0 0-2.31 2.88 2.88 0 0 0-.63-1 3.17 3.17 0 0 0-1.08-.71 4.1 4.1 0 0 0-1.52-.26H128zm10.29.67h-.78v-7.67h.78zM150 33.21a4.25 4.25 0 0 1-.3 1.62 4 4 0 0 1-.84 1.27 3.8 3.8 0 0 1-1.27.84 4.17 4.17 0 0 1-1.59.3 4.12 4.12 0 0 1-1.58-.3 3.81 3.81 0 0 1-2.11-2.11 4.5 4.5 0 0 1 0-3.23 3.81 3.81 0 0 1 2.11-2.11 4.12 4.12 0 0 1 1.58-.3 4.17 4.17 0 0 1 1.59.3 3.8 3.8 0 0 1 1.27.84 4 4 0 0 1 .84 1.27 4.23 4.23 0 0 1 .3 1.61zm-.84 0a3.84 3.84 0 0 0-.22-1.26 3.24 3.24 0 0 0-.62-1.05 2.9 2.9 0 0 0-1-.73 3.39 3.39 0 0 0-2.65 0 2.9 2.9 0 0 0-1 .73 3.07 3.07 0 0 0-.62 1.05 3.75 3.75 0 0 0 0 2.53 3.07 3.07 0 0 0 .62 1.05 2.9 2.9 0 0 0 1 .73 3.39 3.39 0 0 0 2.65 0 2.9 2.9 0 0 0 1-.73 3.24 3.24 0 0 0 .62-1.05 3.81 3.81 0 0 0 .22-1.27zM29.29 44.5l.78 2.74.93-2.74h.49l.91 2.74.78-2.74h.56l-1.06 3.38h-.54l-.89-2.77-.89 2.77h-.54l-1.1-3.38zm6.12-1.3a.34.34 0 0 1-.11.25.37.37 0 0 1-.24.1.42.42 0 0 1-.24-.1.36.36 0 0 1 0-.5.36.36 0 0 1 .24-.1.33.33 0 0 1 .24.1.34.34 0 0 1 .11.25zm-.11 4.68h-.48V44.5h.48zm3.26-2.95h-1v2a.9.9 0 0 0 0 .31.39.39 0 0 0 .1.19.28.28 0 0 0 .15.08.64.64 0 0 0 .2 0 .73.73 0 0 0 .25 0 .85.85 0 0 0 .24-.09v.44a1.52 1.52 0 0 1-.64.12h-.28a.7.7 0 0 1-.27-.14.82.82 0 0 1-.21-.27 1.19 1.19 0 0 1-.08-.46v-2.18h-.71v-.43h.71v-1h.48v1h1zm1.01-2.51H40V45a1 1 0 0 1 .2-.25 1.05 1.05 0 0 1 .27-.2 1.27 1.27 0 0 1 .32-.13 1.4 1.4 0 0 1 .34-.05 1.27 1.27 0 0 1 1 .34 1.41 1.41 0 0 1 .31 1v2.15H42V46a1.54 1.54 0 0 0-.19-.86.77.77 0 0 0-.72-.3h-.2a.91.91 0 0 0-.35.16 1.07 1.07 0 0 0-.33.39 1.48 1.48 0 0 0-.15.72v1.74h-.47zm6.91.35H47V45h2.79v-2.23h.52v5.11h-.52v-2.42H47v2.42h-.52zm5.73 3.55a1.49 1.49 0 0 0 .13.47 1.16 1.16 0 0 0 .26.39 1.48 1.48 0 0 0 .39.26 1.19 1.19 0 0 0 .47.09 1.21 1.21 0 0 0 .66-.18 1.35 1.35 0 0 0 .42-.4l.37.3a2 2 0 0 1-.67.55 1.88 1.88 0 0 1-.78.16 1.78 1.78 0 0 1-.7-.13 1.62 1.62 0 0 1-.55-.37 1.76 1.76 0 0 1-.37-.56 1.87 1.87 0 0 1-.13-.71 1.83 1.83 0 0 1 .13-.71 1.8 1.8 0 0 1 .36-.56 1.45 1.45 0 0 1 .54-.37 1.72 1.72 0 0 1 1.36 0 1.57 1.57 0 0 1 .51.36 1.59 1.59 0 0 1 .31.54 2 2 0 0 1 .11.65v.22zm2.3-.39a1.07 1.07 0 0 0-.29-.78 1 1 0 0 0-.81-.3 1.25 1.25 0 0 0-.82.33 1.06 1.06 0 0 0-.26.34.86.86 0 0 0-.1.41zM57 43.2a.34.34 0 0 1-.11.25.33.33 0 0 1-.47 0 .34.34 0 0 1 0-.5.32.32 0 0 1 .23-.1.33.33 0 0 1 .24.1.34.34 0 0 1 .11.25zm-.11 4.68h-.47V44.5h.47zm4.83 0h-.47v-.57a1.31 1.31 0 0 1-.27.3 1.68 1.68 0 0 1-.34.2 1.45 1.45 0 0 1-.35.12h-.35a1.9 1.9 0 0 1-.73-.13 1.7 1.7 0 0 1-.57-.37 2 2 0 0 1-.37-.56 1.87 1.87 0 0 1-.13-.71 1.74 1.74 0 0 1 .5-1.27 1.56 1.56 0 0 1 .57-.37 1.9 1.9 0 0 1 .73-.14 1.5 1.5 0 0 1 .35 0 1.42 1.42 0 0 1 .35.11 1.73 1.73 0 0 1 .34.21 1.5 1.5 0 0 1 .27.29v-2.57h.47zm-3.08-1.69a1.46 1.46 0 0 0 .09.52 1.24 1.24 0 0 0 .26.43 1.18 1.18 0 0 0 .4.29 1.25 1.25 0 0 0 .53.1 1.4 1.4 0 0 0 .54-.1 1.37 1.37 0 0 0 .42-.29 1.3 1.3 0 0 0 .29-.43 1.46 1.46 0 0 0 .1-.52 1.51 1.51 0 0 0-.1-.53 1.32 1.32 0 0 0-.71-.71 1.4 1.4 0 0 0-.54-.1 1.25 1.25 0 0 0-.53.1 1.3 1.3 0 0 0-.4.28 1.45 1.45 0 0 0-.26.43 1.51 1.51 0 0 0-.09.53zm5.18-2.99a.34.34 0 0 1-.11.25.39.39 0 0 1-.24.1.37.37 0 0 1-.24-.1.34.34 0 0 1 0-.5.33.33 0 0 1 .24-.1.36.36 0 0 1 .35.35zm-.11 4.68h-.48V44.5h.48zm8.29-.81a2.25 2.25 0 0 1-.33.37 2.34 2.34 0 0 1-.43.3 3.05 3.05 0 0 1-.53.2 2.92 2.92 0 0 1-.61.07 2.78 2.78 0 0 1-1.9-.76 2.73 2.73 0 0 1-.56-.85 2.92 2.92 0 0 1-.2-1.08 2.83 2.83 0 0 1 .2-1.07 2.62 2.62 0 0 1 .56-.85 2.47 2.47 0 0 1 .85-.56 2.59 2.59 0 0 1 1-.2 2.72 2.72 0 0 1 1 .18 2 2 0 0 1 .81.62l-.45.34a1.6 1.6 0 0 0-.22-.24 1.44 1.44 0 0 0-.31-.22 2.5 2.5 0 0 0-.38-.15 1.45 1.45 0 0 0-.41-.06 2.1 2.1 0 0 0-.88.18 1.9 1.9 0 0 0-.66.49 2 2 0 0 0-.41.7 2.4 2.4 0 0 0-.15.84 2.36 2.36 0 0 0 .15.84 2.1 2.1 0 0 0 .41.71 2 2 0 0 0 .66.48 2.1 2.1 0 0 0 .88.18 1.75 1.75 0 0 0 .4 0 1.27 1.27 0 0 0 .39-.12 1.62 1.62 0 0 0 .37-.23 2.33 2.33 0 0 0 .31-.37zm1.08-1.52V44.5h.47v.63a1 1 0 0 1 .15-.27.92.92 0 0 1 .22-.22 1.17 1.17 0 0 1 .31-.17 1.29 1.29 0 0 1 .4-.06 1.25 1.25 0 0 1 .36.05l-.1.46a.91.91 0 0 0-.27 0 1 1 0 0 0-.47.1.94.94 0 0 0-.32.27 1.37 1.37 0 0 0-.2.35 1.23 1.23 0 0 0-.06.36v1.91h-.47zm5.99.64a2.08 2.08 0 0 1-.13.71 1.79 1.79 0 0 1-.38.56 1.57 1.57 0 0 1-.56.37 2.09 2.09 0 0 1-1.45 0 1.66 1.66 0 0 1-.56-.37 1.61 1.61 0 0 1-.37-.56 1.87 1.87 0 0 1-.14-.71 1.83 1.83 0 0 1 .14-.71 1.68 1.68 0 0 1 .93-.93 1.95 1.95 0 0 1 1.45 0 1.45 1.45 0 0 1 .56.37 1.68 1.68 0 0 1 .38.56 2 2 0 0 1 .13.71zm-.52 0a1.51 1.51 0 0 0-.09-.53 1.45 1.45 0 0 0-.26-.43 1.3 1.3 0 0 0-.4-.28 1.25 1.25 0 0 0-.53-.1 1.29 1.29 0 0 0-.53.1 1.3 1.3 0 0 0-.4.28 1.67 1.67 0 0 0-.25.43 1.51 1.51 0 0 0-.09.53 1.46 1.46 0 0 0 .09.52 1.39 1.39 0 0 0 .25.43 1.18 1.18 0 0 0 .4.29 1.29 1.29 0 0 0 .53.1 1.25 1.25 0 0 0 .53-.1 1.18 1.18 0 0 0 .4-.29 1.24 1.24 0 0 0 .26-.43 1.46 1.46 0 0 0 .09-.52zm5.16 0a1.87 1.87 0 0 1-.13.71 2 2 0 0 1-.37.56 1.7 1.7 0 0 1-.57.37 1.9 1.9 0 0 1-.73.13 1.8 1.8 0 0 1-.71-.13 1.7 1.7 0 0 1-.57-.37 1.76 1.76 0 0 1-.37-.56 1.87 1.87 0 0 1-.14-.71 1.83 1.83 0 0 1 .14-.71 1.66 1.66 0 0 1 .37-.56 1.56 1.56 0 0 1 .57-.37 1.8 1.8 0 0 1 .71-.14 1.9 1.9 0 0 1 .73.14 1.56 1.56 0 0 1 .57.37 1.74 1.74 0 0 1 .5 1.27zm-.52 0a1.51 1.51 0 0 0-.09-.53 1.27 1.27 0 0 0-.26-.43 1.3 1.3 0 0 0-.4-.28 1.25 1.25 0 0 0-.53-.1 1.32 1.32 0 0 0-.53.1 1.26 1.26 0 0 0-.39.28 1.45 1.45 0 0 0-.26.43 1.51 1.51 0 0 0-.09.53 1.46 1.46 0 0 0 .09.52 1.24 1.24 0 0 0 .26.43 1.14 1.14 0 0 0 .39.29 1.32 1.32 0 0 0 .53.1 1.25 1.25 0 0 0 .53-.1 1.18 1.18 0 0 0 .4-.29 1.1 1.1 0 0 0 .26-.43 1.46 1.46 0 0 0 .09-.52zm2.22-.19L87 44.5h.71L86 46l1.86 1.84h-.73l-1.72-1.74v1.78h-.47v-5.46h.47z"/></svg>