<?xml version="1.0" standalone="no"?><svg viewBox="0 0 260 260"><path d="M0 10.9v11l4.2.8 4.3.9.8 6.4c4.6 39.3 17.6 95.4 30.2 130.5 2.6 7.1 4.9 13.7 5.2 14.6.4 1.4-.8 1.8-7.9 2.4-4.5.3-14.1 1.3-21.1 2.1-7.1.8-13.5 1.4-14.3 1.4-1.2 0-1.4 6.2-1.4 39.5V260h87.2l-1.5-2.4c-13.3-20.2-41.5-78.2-39.2-80.4 1.1-1.1 54.3-.6 67.5.7 15.8 1.5 35.6 4.5 48.3 7.2 5.4 1.2 10.1 1.9 10.3 1.6.3-.3-.6-5.8-2-12.3-5.9-28.1-9.1-64.9-8.4-95.4.2-9.9.7-18.2 1-18.5.7-.7 24.1 9.1 40.3 17 15.1 7.4 33.4 17.8 46.5 26.4 5.1 3.4 9.4 6.1 9.6 6.1.2 0 .4-24.8.4-55V0h-90.8l-1.1 6.7c-1.8 11.1-4 30.4-4.7 41.7-.4 5.8-.8 10.6-.9 10.6-.1 0-10.3-3.3-22.6-7.4-35.6-11.8-75-20.9-115.4-26.7-8.2-1.1-15.3-2.3-15.6-2.5-.4-.2-1-4.3-1.4-9.1C6.5.7 6.3 0 2.9 0H0v10.9zm258.6 121.3c-2.2 21.4-2.7 40.8-1.6 58.2 2.1 32.2 2.7 28.2 2.9-18.7 0-25.1-.1-45.7-.3-45.7-.2 0-.6 2.8-1 6.2z"/><path d="M174 189.2c0 5.9 12.7 42.6 21.3 61.5l4.2 9.3H260l-.2-19.7-.3-19.8-13-6.5c-16-8.1-34.9-15.6-52.6-21-17.2-5.1-19.9-5.7-19.9-3.8z"/></svg>